<svg xmlns="http://www.w3.org/2000/svg" viewBox="0 0 600 600" width="600" height="600" preserveAspectRatio="xMidYMid slice" role="img">
<defs>
<linearGradient id="b" x1="0" y1="0" x2="1" y2="1"><stop offset="0" stop-color="#031614"/><stop offset="1" stop-color="#0c3a35"/></linearGradient>
<radialGradient id="g" cx="60%" cy="45%" r="62%"><stop offset="0" stop-color="#4ec8bd" stop-opacity=".5"/><stop offset="1" stop-color="#4ec8bd" stop-opacity="0"/></radialGradient>
<radialGradient id="v" cx="50%" cy="50%" r="75%"><stop offset="55%" stop-color="#000" stop-opacity="0"/><stop offset="100%" stop-color="#000" stop-opacity=".55"/></radialGradient>
</defs>
<rect width="600" height="600" fill="url(#b)"/>
<rect width="600" height="600" fill="url(#g)"/>
<path d="M-60 199 Q 300 149 660 469" fill="none" stroke="#4ec8bd" stroke-opacity="0.177" stroke-width="3.9"/><path d="M-60 502 Q 300 261 660 119" fill="none" stroke="#ffffff" stroke-opacity="0.076" stroke-width="1.1"/><path d="M-60 480 Q 300 88 660 172" fill="none" stroke="#ffffff" stroke-opacity="0.079" stroke-width="3.7"/><path d="M-60 263 Q 300 138 660 175" fill="none" stroke="#4ec8bd" stroke-opacity="0.163" stroke-width="3.7"/><path d="M-60 246 Q 300 600 660 274" fill="none" stroke="#ffffff" stroke-opacity="0.102" stroke-width="3.1"/><path d="M-60 366 Q 300 83 660 150" fill="none" stroke="#ffffff" stroke-opacity="0.123" stroke-width="3.0"/><path d="M-60 415 Q 300 33 660 359" fill="none" stroke="#4ec8bd" stroke-opacity="0.163" stroke-width="3.9"/><path d="M-60 441 Q 300 60 660 391" fill="none" stroke="#ffffff" stroke-opacity="0.167" stroke-width="3.0"/><path d="M-60 359 Q 300 161 660 192" fill="none" stroke="#ffffff" stroke-opacity="0.145" stroke-width="2.0"/><path d="M-60 136 Q 300 256 660 388" fill="none" stroke="#4ec8bd" stroke-opacity="0.135" stroke-width="3.3"/><path d="M-60 116 Q 300 -12 660 287" fill="none" stroke="#ffffff" stroke-opacity="0.084" stroke-width="3.7"/><path d="M-60 134 Q 300 289 660 199" fill="none" stroke="#ffffff" stroke-opacity="0.137" stroke-width="3.9"/><path d="M-60 206 Q 300 50 660 295" fill="none" stroke="#4ec8bd" stroke-opacity="0.157" stroke-width="1.3"/><path d="M-60 126 Q 300 -17 660 233" fill="none" stroke="#ffffff" stroke-opacity="0.180" stroke-width="1.5"/>
<rect width="600" height="600" fill="url(#v)"/>
</svg>